<svg width="18" height="16" viewBox="0 0 18 16" fill="none" xmlns="http://www.w3.org/2000/svg">
<path d="M9.06018 1.77763C10.6544 0.206567 12.5028 -0.448839 14.6953 0.347571C16.6804 1.06913 17.9815 2.9161 17.9997 5.03986C18.0213 7.52483 17.0037 9.60072 15.4432 11.4442C13.9095 13.2572 12.1181 14.7604 9.95759 15.7535C9.50024 15.9642 8.80168 16.1034 8.39793 15.9024C4.5109 13.9675 1.34404 11.3006 0.220126 6.85376C-0.449038 4.20777 0.44318 1.94387 2.4109 0.772323C4.51868 -0.482785 6.56595 -0.211222 8.75413 1.60964C8.83021 1.67318 8.93136 1.70713 9.06105 1.77676L9.06018 1.77763Z" fill="#E7E7E2"/>
</svg>
