<svg width="18" height="20" viewBox="0 0 18 20" fill="none" xmlns="http://www.w3.org/2000/svg">
<path d="M8.95127 19.9019C8.16595 19.8581 7.37357 19.8623 6.59531 19.7606C5.08964 19.5657 3.88623 18.3411 3.67578 16.8312C3.61363 16.3835 3.44979 16.06 3.08255 15.7564C-0.896316 12.4668 -1.05027 6.09661 2.77746 2.54007C5.35518 0.145966 8.40042 -0.594156 11.7409 0.483542C15.1491 1.58243 17.2466 4.01325 17.8539 7.54013C18.4217 10.8382 17.3186 13.6278 14.8143 15.8651C14.5997 16.0558 14.4146 16.3623 14.3652 16.6405C14.0121 18.6279 12.666 19.8129 10.6434 19.8595C10.0798 19.8722 9.51625 19.8609 8.95269 19.8609C8.95269 19.875 8.95127 19.8878 8.94986 19.9019H8.95127ZM7.18995 9.91446C7.18289 8.4102 5.96818 7.21951 4.44839 7.23081C2.96814 7.24211 1.78169 8.44269 1.77886 9.93C1.77745 11.4427 2.97803 12.6433 4.49217 12.6419C6.00208 12.6391 7.19701 11.4314 7.18995 9.91446ZM13.4994 7.23081C11.9895 7.23363 10.7945 8.44128 10.8016 9.95683C10.8086 11.4413 12.0022 12.6348 13.4852 12.6405C15.0022 12.6475 16.2098 11.4526 16.2113 9.94271C16.2141 8.42998 15.0121 7.22798 13.4994 7.23081ZM10.7988 14.4258C10.7917 13.4145 9.98377 12.632 8.95975 12.6447C7.97527 12.6574 7.19419 13.4498 7.19278 14.4414C7.18995 15.4569 7.98798 16.2535 9.00353 16.2521C10.0177 16.2493 10.8072 15.447 10.7988 14.4272V14.4258Z" fill="#EB2B2B"/>
<path d="M7.18995 9.91446C7.18289 8.4102 5.96818 7.21951 4.44839 7.23081C2.96814 7.24211 1.78169 8.44269 1.77886 9.93C1.77745 11.4427 2.97803 12.6433 4.49217 12.6419C6.00208 12.6391 7.19701 11.4314 7.18995 9.91446Z" fill="#5F5D5D"/>
<path d="M13.4994 7.23081C11.9895 7.23363 10.7945 8.44128 10.8016 9.95683C10.8086 11.4413 12.0022 12.6348 13.4852 12.6405C15.0022 12.6475 16.2098 11.4526 16.2113 9.94271C16.2141 8.42998 15.0121 7.22798 13.4994 7.23081Z" fill="#5F5D5D"/>
<path d="M10.7988 14.4258C10.7917 13.4145 9.98377 12.632 8.95975 12.6447C7.97527 12.6574 7.19419 13.4498 7.19278 14.4414C7.18995 15.4569 7.98798 16.2535 9.00353 16.2521C10.0177 16.2493 10.8072 15.447 10.7988 14.4272V14.4258Z" fill="#5F5D5D"/>
</svg>
