<svg width="10" height="20" viewBox="0 0 10 20" fill="none" xmlns="http://www.w3.org/2000/svg">
<path d="M10 4.48959V4.99711C10 5.81304 9.77492 6.54699 9.32074 7.20677C8.86656 7.86654 8.14309 8.59659 7.1463 9.40081C6.14952 10.205 5.5426 10.7516 5.32958 11.0327C5.11656 11.3138 4.96785 11.8213 4.87942 12.5435C4.791 13.2658 4.55788 13.6288 4.18006 13.6288C3.49277 13.6288 3.14711 13.0471 3.14711 11.8798C3.14711 10.7126 3.73392 9.45937 4.90756 8.1203C6.08119 6.78123 6.66801 5.61394 6.66801 4.62623C6.66801 3.90399 6.44293 3.34572 5.99678 2.95922C5.55064 2.56883 5.00804 2.37753 4.37299 2.37753C3.73794 2.37753 3.0627 2.68204 2.35129 3.29106C1.63987 3.90009 1.11334 4.2046 0.775724 4.2046C0.257235 4.2046 0 3.84933 0 3.1349V2.92799C0 2.12377 0.458199 1.43276 1.37862 0.862782C2.29904 0.292799 3.42846 0 4.78698 0C6.1455 0 7.31913 0.409919 8.31993 1.23366C8.83842 1.6631 9.24839 2.17062 9.54984 2.75622C9.85129 3.34182 10 3.91961 10 4.48569V4.48959ZM4.50161 15.7838C4.83119 15.7838 5.14068 15.9517 5.42604 16.2914C5.71141 16.631 5.85611 17.037 5.85611 17.5133V17.6382C5.85611 18.134 5.69936 18.5322 5.38987 18.8329C5.08039 19.1335 4.70659 19.2857 4.27251 19.2857H3.83441C3.75804 19.2662 3.70177 19.2584 3.66559 19.2584C3.34405 19.2584 3.03055 19.1061 2.71704 18.8055C2.40354 18.5049 2.2508 18.1418 2.2508 17.7202V17.365C2.2508 16.9628 2.3955 16.592 2.68891 16.2523C2.98231 15.9127 3.38022 15.7448 3.89068 15.7448H4.20016C4.3127 15.7721 4.41318 15.7877 4.49759 15.7877L4.50161 15.7838Z" fill="#231B1B"/>
</svg>
